# xmcd CD database file
# Copyright (C) 1993-1996 Ti Kan
#
# Track frame offsets:
# 150
# 10312
# 22312
# 32175
# 42450
# 52237
# 61650
# 72037
# 82125
# 93487
# 104212
# 117525
# 127912
# 139275
#
# Disc length: 1991 seconds
#
# Revision: 1
# Processed by: cddbd v1.4PL0 Copyright (c) Steve Scherf et al.
# Submitted via: Gronk 1.4
#
DISCID=d507c50e
DTITLE=Eddie Bo - Check Mr. Popeye
DYEAR=1900
DGENRE=blues
TTITLE0=Check Mr. Popeye - Part 1
TTITLE1=Check Mr. Popeye - Part 2
TTITLE2=It Must Be Love
TTITLE3=Dinky Doo
TTITLE4=I'll Do Anything
TTITLE5=Warm Daddy
TTITLE6=Roamin-itis
TTITLE7=Hey There Baby
TTITLE8=I Need Someone
TTITLE9=Tell It Like It Is
TTITLE10=You Got Your Mojo Working
TTITLE11=Ain't You Ashamed
TTITLE12=Baby I'm Wise
TTITLE13=Every Dog Has Its Day
EXTD=
EXTT0=
EXTT1=
EXTT2=
EXTT3=
EXTT4=
EXTT5=
EXTT6=
EXTT7=
EXTT8=
EXTT9=
EXTT10=
EXTT11=
EXTT12=
EXTT13=
PLAYORDER=
